<?xml version="1.0" encoding="UTF-8" standalone="no"?><!DOCTYPE svg PUBLIC "-//W3C//DTD SVG 1.1//EN" "http://www.w3.org/Graphics/SVG/1.1/DTD/svg11.dtd"><svg width="100%" height="100%" viewBox="0 0 19442 12138" version="1.1" xmlns="http://www.w3.org/2000/svg" xmlns:xlink="http://www.w3.org/1999/xlink" xml:space="preserve" xmlns:serif="http://www.serif.com/" style="fill-rule:evenodd;clip-rule:evenodd;stroke-miterlimit:10;"><path d="M0,887.888c0,1345.45 844.063,2434.17 1887.17,2434.17" style="fill:#2f2e41;fill-rule:nonzero;"/><path d="M1887.17,3322.06c-0,-1360.57 941.925,-2461.52 2105.97,-2461.52" style="fill:#800;fill-rule:nonzero;"/><path d="M683.754,1009.85c0,1278.03 538.246,2312.2 1203.41,2312.2" style="fill:#800;fill-rule:nonzero;"/><path d="M1887.17,3322.06c-0,-1738.5 1088.72,-3145.28 2434.17,-3145.28" style="fill:#2f2e41;fill-rule:nonzero;"/><ellipse cx="3448.08" cy="7369.79" rx="3246.53" ry="441.667" style="fill:#3f3d56;"/><ellipse cx="3448.08" cy="7369.79" rx="2725.7" ry="370.808" style="fill-opacity:0.1;"/><ellipse cx="14524.5" cy="11467" rx="4913.21" ry="668.404" style="fill:#3f3d56;"/><ellipse cx="5392.5" cy="11206.6" rx="2951.39" ry="401.512" style="fill:#3f3d56;"/><path d="M8031.42,10868c1562.5,399.308 4565.96,-520.834 4895.83,-1562.5" style="fill:none;stroke:#2f2e41;stroke-width:34.71px;"/><path d="M5375.17,4496.54c-0,-0 2256.95,-625 2395.83,1388.89c138.888,2013.89 -1857.64,2586.8 -295.137,2986.11" style="fill:none;stroke:#2f2e41;stroke-width:34.71px;"/><path d="M3194.64,9327.83c-0,0 678.341,-187.85 720.083,417.438c41.746,605.287 -558.325,777.479 -88.704,897.492" style="fill:none;stroke:#2f2e41;stroke-width:34.71px;"/><path d="M13519.2,9778.46l-136.763,873.18c0,-0.001 -673.296,357.687 -199.887,368.208c473.412,10.521 2703.7,-0 2703.7,-0c-0,-0 431.329,-0 -252.488,-378.729l-136.762,-915.259l-1977.8,52.6Z" style="fill:#2f2e41;fill-rule:nonzero;"/><path d="M13087.3,11010.4c107.516,-95.667 295.116,-195.346 295.116,-195.346l136.767,-873.183l1977.8,1.862l136.763,860.8c159.462,88.317 258.245,156.025 316.037,207.955c87.825,-20.038 183.804,-94.509 -316.037,-371.342l-136.763,-915.258l-1977.8,52.6l-136.762,873.179c-0,-0 -565.767,300.6 -295.121,358.733Z" style="fill-opacity:0.1;fill-rule:nonzero;"/><path d="M18952.9,4005.8c0,-172.912 -140.383,-313.296 -313.292,-313.296l-8284.04,0c-172.909,0 -313.292,140.384 -313.292,313.296l0,5580.38c0,172.913 140.383,313.296 313.292,313.296l8284.04,0c172.909,0 313.292,-140.383 313.292,-313.296l0,-5580.38Z" style="fill:#2f2e41;"/><rect x="10342.1" y="4023.9" width="8311" height="4649.96" style="fill:#3f3d56;"/><path d="M18952.9,9042.04l0,544.146c0,171.845 -141.408,313.254 -313.254,313.254l-8284.12,-0c-171.846,-0 -313.254,-141.409 -313.254,-313.254l0,-544.146l8910.62,-0Z" style="fill:#2f2e41;fill-rule:nonzero;"/><path d="M16822.5,11588l-0,105.209l-5659.92,-0l0,-84.167l7.796,-21.042l139.496,-378.733l5396.88,0.004l115.729,378.729l0.021,0Z" style="fill:#2f2e41;fill-rule:nonzero;"/><path d="M19000.6,11485c-10.313,44.079 -49.237,90.579 -137.183,134.555c-315.609,157.804 -957.346,-42.08 -957.346,-42.08c-0,0 -494.45,-84.162 -494.45,-305.087c13.883,-9.509 28.362,-18.117 43.346,-25.775c132.687,-70.2 572.646,-243.425 1352.74,7.333c57.463,18.038 108.804,51.683 148.279,97.175c31.613,37.004 56.396,83.942 44.617,133.879Z" style="fill:#2f2e41;fill-rule:nonzero;"/><path d="M19000.6,11485c-386.304,148.021 -730.633,159.067 -1084.01,-86.37c-178.213,-123.721 -340.117,-154.334 -461.625,-152.017c132.687,-70.2 572.646,-243.425 1352.74,7.333c57.463,18.038 108.804,51.684 148.279,97.175c31.613,37.004 56.396,83.942 44.617,133.879Z" style="fill-opacity:0.1;fill-rule:nonzero;"/><path d="M16822.5,11588l-0,105.209l-5659.92,-0l0,-84.167l7.796,-21.042l5652.12,0Z" style="fill-opacity:0.1;fill-rule:nonzero;"/><rect x="1885.58" y="2760.42" width="3611.11" height="4201.38" style="fill:#2f2e41;"/><rect x="1520.99" y="2343.75" width="4340.29" height="1493.05" style="fill:#3f3d56;"/><rect x="1520.99" y="4114.58" width="4340.29" height="1493.05" style="fill:#3f3d56;"/><rect x="1520.99" y="5885.42" width="4340.29" height="1493.05" style="fill:#3f3d56;"/><g><rect x="4715.42" y="2604.17" width="277.779" height="277.779" style="fill:#800;fill-opacity:0.4;"/><rect x="5114.75" y="2604.17" width="277.779" height="277.779" style="fill:#800;fill-opacity:0.8;"/><rect x="5514.04" y="2604.17" width="277.779" height="277.779" style="fill:#800;"/><rect x="4715.42" y="4357.62" width="277.779" height="277.779" style="fill:#800;fill-opacity:0.4;"/><rect x="5114.75" y="4357.62" width="277.779" height="277.779" style="fill:#800;fill-opacity:0.8;"/><rect x="5514.04" y="4357.62" width="277.779" height="277.779" style="fill:#800;"/><rect x="4715.42" y="6111.12" width="277.779" height="277.779" style="fill:#800;fill-opacity:0.4;"/><rect x="5114.75" y="6111.12" width="277.779" height="277.779" style="fill:#800;fill-opacity:0.8;"/><rect x="5514.04" y="6111.12" width="277.779" height="277.779" style="fill:#800;"/></g><circle cx="5496.67" cy="9340.29" r="1371.53" style="fill:#2f2e41;"/><rect x="4871.67" y="10416.7" width="416.667" height="746.529" style="fill:#2f2e41;"/><rect x="5705" y="10416.7" width="416.667" height="746.529" style="fill:#2f2e41;"/><ellipse cx="5218.92" cy="11171.9" rx="347.221" ry="130.208" style="fill:#2f2e41;"/><ellipse cx="6052.25" cy="11154.5" rx="347.221" ry="130.208" style="fill:#2f2e41;"/><circle cx="5531.42" cy="8993.04" r="468.75" style="fill:#fff;"/><circle cx="5531.42" cy="8993.04" r="156.25" style="fill:#3f3d56;"/><path d="M4166.26,8064.79c-110.745,-495.963 243.263,-997.117 790.692,-1119.36c547.433,-122.237 1080.99,180.73 1191.74,676.696c110.745,495.967 -252.059,678.884 -799.492,801.121c-547.433,122.238 -1072.19,137.504 -1182.94,-358.462Z" style="fill:#800;fill-rule:nonzero;"/><path d="M6613.62,8670.88c347.95,-148.925 668.4,-181.15 715.154,-71.917c46.75,109.234 -197.783,318.825 -545.737,467.75c-347.955,148.925 -668.405,181.15 -715.155,71.917c-46.754,-109.229 197.784,-318.825 545.738,-467.75Z" style="fill:#2f2e41;"/><path d="M4044.18,9591.04c347.955,-148.925 668.405,-181.15 715.155,-71.917c46.754,109.229 -197.784,318.821 -545.738,467.75c-347.95,148.925 -668.4,181.15 -715.154,71.917c-46.75,-109.234 197.783,-318.825 545.737,-467.75Z" style="fill:#2f2e41;"/><path d="M6295.29,9739.58c-0,134.238 -345.634,399.305 -729.167,399.305c-383.529,-0.001 -746.525,-247.709 -746.525,-381.942c0,-134.238 362.996,-104.167 746.525,-104.167c383.533,0 729.167,-47.433 729.167,86.804Z" style="fill:#fff;fill-rule:nonzero;"/><path d="M5459.42,7525.54c-4.359,-23.475 -15.092,-47.621 -31.188,-72.771c-20.121,-30.85 -43.591,-51.309 -70.421,-61.704c-26.491,-10.396 -56.337,-11.067 -89.2,-2.346c13.746,-24.146 20.121,-49.296 19.113,-75.788c-1.004,-26.491 -9.054,-51.646 -24.817,-75.454c-25.15,-38.9 -58.012,-60.696 -98.925,-65.725c-40.579,-4.696 -84.841,8.717 -133.133,39.904l-179.075,116.7l19.117,29.509l6.037,-4.021c12.071,-7.713 22.467,-12.075 31.521,-12.746c8.717,-0.671 17.104,2.35 25.821,8.383c8.383,6.038 17.437,15.43 26.829,28.505c9.387,13.416 20.792,30.183 33.871,50.304l56,85.846l-64.721,42.254c-53.654,35.212 -84.508,77.8 -92.554,127.096c-8.384,49.295 5.029,100.941 39.904,154.258l122.067,188.466c13.412,20.455 24.145,37.559 32.191,51.309c8.384,14.083 13.417,25.821 15.763,36.216c2.346,10.059 1.341,19.113 -2.346,26.492c-4.025,7.713 -11.404,15.092 -23.142,22.467l-4.358,5.7l18.108,27.837l172.367,-112.341l-20.121,-30.517l-16.096,10.396c-9.387,6.708 -17.775,9.725 -25.487,9.054c-7.713,-0.671 -15.759,-4.696 -23.809,-11.738c-8.05,-7.379 -16.766,-17.775 -25.821,-31.187c-9.054,-13.079 -19.787,-28.842 -31.52,-46.95l-55.671,-86.183l109.996,-71.763l47.283,-30.85l151.575,-98.258c21.462,-14.084 39.237,-29.509 53.654,-47.284c14.421,-17.437 24.483,-36.554 29.846,-57.008c5.704,-20.792 6.037,-42.587 1.342,-66.062Zm-428.571,-195.842c-8.717,-14.083 -13.079,-26.829 -14.084,-37.558c2.684,-8.721 11.738,-18.109 27.5,-28.171c36.55,-23.809 67.067,-34.538 91.213,-31.859c23.808,2.35 45.942,19.45 66.062,50.305c10.73,16.429 17.775,31.858 20.792,46.275c3.354,14.758 2.346,29.175 -2.683,42.925c-5.029,14.087 -14.084,27.833 -27.834,41.92c-13.75,13.746 -31.858,28.167 -54.995,43.259c-6.038,3.687 -10.396,6.037 -13.417,6.708c-3.017,0.667 -6.371,-1.008 -10.396,-5.367l-48.625,-74.445c-14.083,-21.463 -25.15,-39.571 -33.533,-53.992Zm153.254,440.308c-3.688,6.371 -9.725,12.409 -18.108,19.113c-3.021,2.012 -6.038,4.025 -9.392,6.375l-109.992,71.425l-60.7,-92.888c-14.083,-21.8 -22.8,-41.921 -26.491,-60.362c-3.688,-18.779 -3.688,-35.546 -0.334,-50.975c3.688,-15.088 10.059,-28.167 19.784,-39.571c9.725,-11.067 20.458,-20.792 32.196,-28.504l64.72,-42.254l66.063,101.612c13.079,20.454 23.808,37.558 32.192,51.308c8.05,14.084 13.079,26.155 15.091,36.55c2.013,10.396 0.338,19.788 -5.029,28.171Zm208.25,-171.362c-2.35,14.083 -8.05,27.5 -17.775,40.579c-9.388,13.412 -22.467,26.492 -39.571,40.242c-13.412,8.383 -24.817,13.412 -34.542,14.754c-9.725,1.341 -19.112,-1.009 -28.166,-6.709c-8.721,-5.7 -18.109,-15.425 -27.5,-28.504c-9.388,-13.079 -20.454,-29.846 -33.871,-49.966l-63.713,-98.255c-1.679,-4.025 -1.341,-7.712 0.671,-10.395c2.346,-3.021 6.704,-6.709 13.413,-11.067c25.487,-16.767 48.292,-28.504 68.412,-35.546c20.455,-7.379 38.563,-10.062 54.996,-8.383c16.096,1.675 30.85,7.375 43.929,16.766c13.079,9.388 24.817,22.467 35.546,38.563c11.067,19.117 19.45,36.888 24.146,52.65c5.029,16.096 6.371,31.188 4.025,45.271Z" style="fill:#fff;fill-rule:nonzero;"/><g><path d="M1926.64,2427.08l-290.569,0c-17.508,0 -31.746,14.344 -31.746,31.747l0,290.675c0,17.402 14.238,31.746 31.746,31.746l290.569,0c17.508,0 31.852,-14.344 31.852,-31.746l-0,-290.675c-0,-17.403 -14.344,-31.747 -31.852,-31.747Z" style="fill:#800000;fill-rule:nonzero;"/><path d="M1876.44,2554.49c-1.371,-7.383 -4.747,-14.977 -9.809,-22.887c-6.328,-9.704 -13.711,-16.137 -22.149,-19.407c-8.332,-3.269 -17.719,-3.48 -28.055,-0.738c4.325,-7.594 6.329,-15.504 6.012,-23.836c-0.316,-8.332 -2.848,-16.242 -7.805,-23.731c-7.91,-12.234 -18.246,-19.09 -31.113,-20.672c-12.762,-1.476 -26.684,2.742 -41.872,12.551l-56.32,36.704l6.011,9.281l1.899,-1.266c3.797,-2.426 7.066,-3.797 9.914,-4.008c2.742,-0.211 5.379,0.739 8.121,2.637c2.637,1.899 5.485,4.852 8.438,8.965c2.953,4.219 6.539,9.492 10.652,15.821l17.614,27l-20.356,13.289c-16.875,11.074 -26.578,24.469 -29.11,39.973c-2.636,15.504 1.582,31.746 12.551,48.516l38.391,59.274c4.219,6.434 7.594,11.813 10.125,16.137c2.637,4.429 4.219,8.121 4.957,11.391c0.739,3.164 0.422,6.011 -0.738,8.331c-1.266,2.426 -3.586,4.747 -7.277,7.067l-1.371,1.793l5.695,8.754l54.211,-35.332l-6.328,-9.598l-5.062,3.27c-2.954,2.109 -5.59,3.058 -8.016,2.847c-2.426,-0.211 -4.957,-1.476 -7.488,-3.691c-2.532,-2.321 -5.274,-5.59 -8.122,-9.809c-2.847,-4.113 -6.222,-9.07 -9.914,-14.766l-17.508,-27.105l34.594,-22.571l14.872,-9.703l47.672,-30.903c6.75,-4.429 12.34,-9.281 16.875,-14.871c4.535,-5.484 7.699,-11.496 9.387,-17.93c1.793,-6.539 1.898,-13.394 0.422,-20.777Zm-134.791,-61.595c-2.742,-4.429 -4.113,-8.437 -4.429,-11.812c0.843,-2.742 3.691,-5.696 8.648,-8.86c11.496,-7.488 21.094,-10.863 28.688,-10.019c7.488,0.738 14.449,6.117 20.777,15.82c3.376,5.168 5.59,10.02 6.54,14.555c1.054,4.641 0.738,9.176 -0.844,13.5c-1.582,4.43 -4.43,8.754 -8.754,13.184c-4.324,4.324 -10.02,8.859 -17.297,13.605c-1.899,1.16 -3.27,1.899 -4.219,2.11c-0.949,0.211 -2.004,-0.317 -3.27,-1.688l-15.293,-23.414c-4.429,-6.75 -7.91,-12.445 -10.547,-16.981Zm48.2,138.482c-1.16,2.004 -3.058,3.902 -5.695,6.012c-0.95,0.633 -1.899,1.265 -2.953,2.004l-34.594,22.465l-19.09,-29.215c-4.43,-6.856 -7.172,-13.184 -8.333,-18.985c-1.16,-5.906 -1.16,-11.18 -0.105,-16.031c1.16,-4.746 3.164,-8.86 6.223,-12.446c3.058,-3.48 6.433,-6.539 10.125,-8.965l20.355,-13.289l20.778,31.958c4.113,6.433 7.488,11.812 10.125,16.136c2.531,4.43 4.113,8.227 4.746,11.497c0.633,3.269 0.106,6.222 -1.582,8.859Zm65.497,-53.895c-0.738,4.43 -2.532,8.649 -5.59,12.762c-2.953,4.219 -7.067,8.332 -12.445,12.656c-4.219,2.637 -7.805,4.219 -10.864,4.641c-3.059,0.422 -6.012,-0.317 -8.859,-2.109c-2.743,-1.793 -5.696,-4.852 -8.649,-8.965c-2.953,-4.114 -6.434,-9.387 -10.652,-15.715l-20.04,-30.903c-0.527,-1.266 -0.422,-2.426 0.211,-3.27c0.739,-0.949 2.11,-2.109 4.219,-3.48c8.016,-5.274 15.188,-8.965 21.516,-11.18c6.434,-2.32 12.129,-3.164 17.297,-2.637c5.063,0.528 9.703,2.321 13.816,5.274c4.114,2.953 7.805,7.066 11.18,12.129c3.481,6.012 6.118,11.602 7.594,16.559c1.582,5.062 2.004,9.808 1.266,14.238Z" style="fill:#fff;fill-rule:nonzero;"/></g><g><path d="M1919.7,4197.92l-290.568,-0c-17.508,-0 -31.747,14.343 -31.747,31.746l0,290.675c0,17.403 14.239,31.747 31.747,31.747l290.568,-0c17.508,-0 31.852,-14.344 31.852,-31.747l0,-290.675c0,-17.403 -14.344,-31.746 -31.852,-31.746Z" style="fill:#800000;fill-rule:nonzero;"/><path d="M1869.5,4325.32c-1.371,-7.383 -4.746,-14.977 -9.808,-22.887c-6.329,-9.703 -13.712,-16.137 -22.149,-19.406c-8.332,-3.27 -17.719,-3.481 -28.055,-0.739c4.324,-7.593 6.328,-15.504 6.012,-23.836c-0.317,-8.332 -2.848,-16.242 -7.805,-23.73c-7.91,-12.235 -18.246,-19.09 -31.114,-20.672c-12.762,-1.477 -26.683,2.742 -41.871,12.55l-56.321,36.704l6.012,9.281l1.898,-1.266c3.797,-2.425 7.067,-3.796 9.915,-4.007c2.742,-0.211 5.378,0.738 8.121,2.636c2.636,1.899 5.484,4.852 8.437,8.965c2.953,4.219 6.539,9.493 10.653,15.821l17.613,27l-20.355,13.289c-16.876,11.075 -26.579,24.469 -29.11,39.973c-2.637,15.504 1.582,31.747 12.551,48.516l38.391,59.274c4.219,6.434 7.594,11.813 10.125,16.137c2.637,4.43 4.219,8.121 4.957,11.391c0.738,3.164 0.422,6.012 -0.738,8.332c-1.266,2.426 -3.586,4.746 -7.278,7.066l-1.371,1.793l5.695,8.754l54.212,-35.332l-6.328,-9.598l-5.063,3.27c-2.953,2.109 -5.59,3.058 -8.016,2.848c-2.425,-0.211 -4.957,-1.477 -7.488,-3.692c-2.531,-2.32 -5.273,-5.59 -8.121,-9.809c-2.848,-4.113 -6.223,-9.07 -9.914,-14.765l-17.508,-27.106l34.594,-22.571l14.871,-9.703l47.672,-30.902c6.75,-4.43 12.34,-9.282 16.876,-14.872c4.535,-5.484 7.699,-11.496 9.386,-17.929c1.793,-6.54 1.899,-13.395 0.422,-20.778Zm-134.79,-61.594c-2.742,-4.43 -4.113,-8.438 -4.43,-11.813c0.844,-2.742 3.692,-5.695 8.649,-8.859c11.496,-7.489 21.094,-10.864 28.687,-10.02c7.489,0.738 14.45,6.117 20.778,15.821c3.375,5.167 5.59,10.019 6.539,14.554c1.055,4.641 0.738,9.176 -0.844,13.5c-1.582,4.43 -4.429,8.754 -8.754,13.184c-4.324,4.324 -10.019,8.859 -17.297,13.606c-1.898,1.16 -3.269,1.898 -4.219,2.109c-0.949,0.211 -2.003,-0.316 -3.269,-1.687l-15.293,-23.415c-4.43,-6.75 -7.91,-12.445 -10.547,-16.98Zm48.2,138.481c-1.161,2.004 -3.059,3.903 -5.696,6.012c-0.949,0.633 -1.898,1.266 -2.953,2.004l-34.594,22.465l-19.09,-29.215c-4.43,-6.856 -7.172,-13.184 -8.332,-18.984c-1.16,-5.907 -1.16,-11.18 -0.106,-16.032c1.161,-4.746 3.165,-8.859 6.223,-12.445c3.059,-3.481 6.434,-6.54 10.125,-8.965l20.356,-13.29l20.777,31.958c4.114,6.434 7.489,11.813 10.125,16.137c2.532,4.429 4.114,8.226 4.747,11.496c0.632,3.269 0.105,6.223 -1.582,8.859Zm65.496,-53.895c-0.738,4.43 -2.531,8.649 -5.59,12.762c-2.953,4.219 -7.066,8.332 -12.445,12.657c-4.219,2.636 -7.805,4.218 -10.863,4.64c-3.059,0.422 -6.012,-0.316 -8.86,-2.109c-2.742,-1.793 -5.695,-4.852 -8.648,-8.965c-2.954,-4.113 -6.434,-9.387 -10.653,-15.715l-20.039,-30.903c-0.527,-1.265 -0.422,-2.425 0.211,-3.269c0.738,-0.949 2.109,-2.11 4.219,-3.481c8.015,-5.273 15.187,-8.965 21.516,-11.18c6.433,-2.32 12.128,-3.164 17.297,-2.636c5.062,0.527 9.703,2.32 13.816,5.273c4.113,2.953 7.805,7.067 11.18,12.129c3.48,6.012 6.117,11.602 7.594,16.559c1.582,5.062 2.004,9.809 1.265,14.238Z" style="fill:#fff;fill-rule:nonzero;"/></g><g><path d="M1919.7,5968.75l-290.568,0c-17.508,0 -31.747,14.344 -31.747,31.746l0,290.676c0,17.402 14.239,31.746 31.747,31.746l290.568,0c17.508,0 31.852,-14.344 31.852,-31.746l0,-290.676c0,-17.402 -14.344,-31.746 -31.852,-31.746Z" style="fill:#800000;fill-rule:nonzero;"/><path d="M1869.5,6096.16c-1.371,-7.382 -4.746,-14.976 -9.808,-22.887c-6.329,-9.703 -13.712,-16.136 -22.149,-19.406c-8.332,-3.27 -17.719,-3.481 -28.055,-0.738c4.324,-7.594 6.328,-15.504 6.012,-23.837c-0.317,-8.332 -2.848,-16.242 -7.805,-23.73c-7.91,-12.235 -18.246,-19.09 -31.114,-20.672c-12.762,-1.477 -26.683,2.742 -41.871,12.551l-56.321,36.703l6.012,9.281l1.898,-1.265c3.797,-2.426 7.067,-3.797 9.915,-4.008c2.742,-0.211 5.378,0.738 8.121,2.637c2.636,1.898 5.484,4.851 8.437,8.965c2.953,4.218 6.539,9.492 10.653,15.82l17.613,27l-20.355,13.289c-16.876,11.075 -26.579,24.469 -29.11,39.974c-2.637,15.504 1.582,31.746 12.551,48.516l38.391,59.274c4.219,6.433 7.594,11.812 10.125,16.136c2.637,4.43 4.219,8.122 4.957,11.391c0.738,3.164 0.422,6.012 -0.738,8.332c-1.266,2.426 -3.586,4.746 -7.278,7.067l-1.371,1.793l5.695,8.754l54.212,-35.333l-6.328,-9.597l-5.063,3.269c-2.953,2.11 -5.59,3.059 -8.016,2.848c-2.425,-0.211 -4.957,-1.477 -7.488,-3.692c-2.531,-2.32 -5.273,-5.59 -8.121,-9.808c-2.848,-4.114 -6.223,-9.071 -9.914,-14.766l-17.508,-27.106l34.594,-22.57l14.871,-9.703l47.672,-30.903c6.75,-4.43 12.34,-9.281 16.876,-14.871c4.535,-5.485 7.699,-11.497 9.386,-17.93c1.793,-6.539 1.899,-13.395 0.422,-20.778Zm-134.79,-61.594c-2.742,-4.43 -4.113,-8.438 -4.43,-11.813c0.844,-2.742 3.692,-5.695 8.649,-8.859c11.496,-7.488 21.094,-10.863 28.687,-10.02c7.489,0.739 14.45,6.118 20.778,15.821c3.375,5.168 5.59,10.019 6.539,14.555c1.055,4.64 0.738,9.175 -0.844,13.5c-1.582,4.429 -4.429,8.754 -8.754,13.183c-4.324,4.325 -10.019,8.86 -17.297,13.606c-1.898,1.16 -3.269,1.898 -4.219,2.109c-0.949,0.211 -2.003,-0.316 -3.269,-1.687l-15.293,-23.414c-4.43,-6.75 -7.91,-12.446 -10.547,-16.981Zm48.2,138.482c-1.161,2.004 -3.059,3.902 -5.696,6.011c-0.949,0.633 -1.898,1.266 -2.953,2.004l-34.594,22.465l-19.09,-29.215c-4.43,-6.855 -7.172,-13.183 -8.332,-18.984c-1.16,-5.906 -1.16,-11.18 -0.106,-16.032c1.161,-4.746 3.165,-8.859 6.223,-12.445c3.059,-3.481 6.434,-6.539 10.125,-8.965l20.356,-13.289l20.777,31.957c4.114,6.434 7.489,11.813 10.125,16.137c2.532,4.43 4.114,8.227 4.747,11.496c0.632,3.27 0.105,6.223 -1.582,8.86Zm65.496,-53.895c-0.738,4.429 -2.531,8.648 -5.59,12.761c-2.953,4.219 -7.066,8.333 -12.445,12.657c-4.219,2.637 -7.805,4.219 -10.863,4.641c-3.059,0.421 -6.012,-0.317 -8.86,-2.11c-2.742,-1.793 -5.695,-4.851 -8.648,-8.965c-2.954,-4.113 -6.434,-9.387 -10.653,-15.715l-20.039,-30.902c-0.527,-1.266 -0.422,-2.426 0.211,-3.27c0.738,-0.949 2.109,-2.109 4.219,-3.48c8.015,-5.274 15.187,-8.965 21.516,-11.18c6.433,-2.321 12.128,-3.164 17.297,-2.637c5.062,0.527 9.703,2.32 13.816,5.274c4.113,2.953 7.805,7.066 11.18,12.129c3.48,6.011 6.117,11.601 7.594,16.558c1.582,5.063 2.004,9.809 1.265,14.239Z" style="fill:#fff;fill-rule:nonzero;"/></g><path d="M14734.2,9136.34c-3.414,-18.383 -11.818,-37.292 -24.424,-56.989c-15.757,-24.161 -34.141,-40.181 -55.15,-48.322c-20.748,-8.142 -44.121,-8.667 -69.858,-1.839c10.768,-18.909 15.758,-38.605 14.97,-59.352c-0.788,-20.748 -7.091,-40.444 -19.435,-59.09c-19.696,-30.464 -45.433,-47.535 -77.473,-51.474c-31.777,-3.677 -66.443,6.828 -104.261,31.252l-140.24,91.393l14.97,23.11l4.727,-3.151c9.455,-6.041 17.596,-9.455 24.687,-9.98c6.828,-0.525 13.393,1.838 20.221,6.566c6.566,4.727 13.657,12.08 21.01,22.322c7.354,10.505 16.283,23.636 26.525,39.394l43.857,67.231l-50.685,33.09c-42.02,27.576 -66.181,60.928 -72.484,99.534c-6.566,38.605 3.939,79.049 31.252,120.806l95.594,147.593c10.505,16.02 18.909,29.414 25.212,40.181c6.566,11.03 10.505,20.223 12.343,28.364c1.839,7.878 1.051,14.969 -1.838,20.746c-3.152,6.041 -8.929,11.819 -18.121,17.596l-3.414,4.465l14.181,21.798l134.988,-87.979l-15.757,-23.898l-12.606,8.141c-7.353,5.253 -13.919,7.616 -19.959,7.091c-6.041,-0.526 -12.344,-3.677 -18.647,-9.192c-6.303,-5.778 -13.131,-13.919 -20.221,-24.424c-7.091,-10.242 -15.495,-22.585 -24.687,-36.767l-43.595,-67.494l86.14,-56.201l37.03,-24.161l118.705,-76.948c16.807,-11.03 30.727,-23.111 42.019,-37.03c11.293,-13.656 19.172,-28.626 23.374,-44.645c4.464,-16.283 4.727,-33.353 1.05,-51.737Zm-335.631,-153.371c-6.828,-11.03 -10.242,-21.01 -11.03,-29.414c2.101,-6.828 9.192,-14.181 21.535,-22.06c28.626,-18.646 52.525,-27.05 71.433,-24.949c18.646,1.838 35.979,15.232 51.737,39.393c8.404,12.869 13.919,24.949 16.282,36.242c2.627,11.555 1.839,22.848 -2.101,33.616c-3.939,11.03 -11.03,21.797 -21.797,32.827c-10.768,10.768 -24.949,22.06 -43.07,33.879c-4.727,2.888 -8.141,4.727 -10.505,5.252c-2.363,0.525 -4.99,-0.788 -8.141,-4.202l-38.081,-58.302c-11.03,-16.808 -19.696,-30.989 -26.262,-42.282Zm120.018,344.822c-2.888,4.99 -7.615,9.717 -14.181,14.97c-2.364,1.575 -4.727,3.151 -7.354,4.99l-86.139,55.938l-47.535,-72.746c-11.03,-17.071 -17.858,-32.828 -20.747,-47.272c-2.889,-14.707 -2.889,-27.838 -0.263,-39.919c2.889,-11.818 7.879,-22.06 15.495,-30.989c7.616,-8.667 16.02,-16.283 25.212,-22.323l50.686,-33.09l51.736,79.574c10.242,16.02 18.646,29.414 25.212,40.181c6.303,11.03 10.242,20.485 11.818,28.626c1.576,8.141 0.262,15.495 -3.94,22.06Zm163.089,-134.2c-1.839,11.03 -6.303,21.535 -13.919,31.778c-7.354,10.505 -17.596,20.747 -30.989,31.514c-10.505,6.566 -19.435,10.505 -27.051,11.556c-7.616,1.05 -14.969,-0.788 -22.06,-5.253c-6.828,-4.464 -14.182,-12.08 -21.535,-22.323c-7.353,-10.242 -16.02,-23.373 -26.525,-39.13l-49.898,-76.948c-1.313,-3.152 -1.05,-6.041 0.525,-8.142c1.839,-2.363 5.253,-5.252 10.505,-8.666c19.959,-13.131 37.818,-22.323 53.575,-27.838c16.02,-5.778 30.201,-7.879 43.07,-6.565c12.606,1.312 24.161,5.777 34.403,13.13c10.243,7.354 19.435,17.596 27.838,30.202c8.667,14.969 15.233,28.889 18.909,41.232c3.939,12.605 4.99,24.423 3.152,35.453Z" style="fill:#fff;fill-rule:nonzero;"/></svg>