<?xml version="1.0" encoding="UTF-8" standalone="no"?><!DOCTYPE svg PUBLIC "-//W3C//DTD SVG 1.1//EN" "http://www.w3.org/Graphics/SVG/1.1/DTD/svg11.dtd"><svg width="100%" height="100%" viewBox="0 0 4650 3470" version="1.1" xmlns="http://www.w3.org/2000/svg" xmlns:xlink="http://www.w3.org/1999/xlink" xml:space="preserve" xmlns:serif="http://www.serif.com/" style="fill-rule:evenodd;clip-rule:evenodd;stroke-miterlimit:10;"><path d="M1624.82,1063.67l599.999,0" style="fill:none;fill-rule:nonzero;stroke:#3f3d56;stroke-width:8.33px;"/><path d="M813.505,1688.97c32.431,-84.849 80.387,-145.471 107.024,-135.289c26.636,10.181 21.932,87.333 -10.499,172.183c-32.431,84.849 -80.387,145.47 -107.023,135.289c-26.637,-10.181 -21.933,-87.334 10.498,-172.183Z" style="fill:#2f2e41;"/><ellipse cx="3816.67" cy="3310.15" rx="708.333" ry="96.363" style="fill:#3f3d56;"/><path d="M3353.29,3064.9l26.643,96.386l172.691,-47.737l-26.644,-96.385l-172.69,47.736Z" style="fill:#2f2e41;"/><path d="M3320.78,3017.69c16.624,-4.595 40.069,27.665 52.323,71.995c12.254,44.331 8.707,84.052 -7.917,88.647c-16.624,4.596 -40.069,-27.664 -52.324,-71.995c-12.254,-44.33 -8.706,-84.051 7.918,-88.647Z" style="fill:#2f2e41;"/><path d="M3795.96,2719.52c12.201,-90.012 45.048,-159.982 73.306,-156.152c28.257,3.83 41.294,80.019 29.094,170.032c-12.201,90.013 -45.048,159.982 -73.306,156.152c-28.258,-3.83 -41.294,-80.019 -29.094,-170.032Z" style="fill:#2f2e41;"/><circle cx="3814.94" cy="3034.58" r="329.167" style="fill:#2f2e41;"/><path d="M3353.29,3006.57l26.643,96.385l172.691,-47.736l-26.644,-96.385l-172.69,47.736Z" style="fill:#2f2e41;"/><path d="M3320.78,2959.36c16.624,-4.595 40.069,27.664 52.323,71.995c12.254,44.33 8.707,84.052 -7.917,88.647c-16.624,4.595 -40.069,-27.664 -52.324,-71.995c-12.254,-44.33 -8.706,-84.052 7.918,-88.647Z" style="fill:#2f2e41;"/><circle cx="3901.37" cy="2846.01" r="112.5" style="fill:#fff;"/><circle cx="3937.35" cy="2796.32" r="37.5" style="fill:#3f3d56;"/><g><path d="M4195.06,3260.78c121.81,-6.096 215.102,-120.032 208.373,-254.483c-6.729,-134.451 -110.93,-238.504 -232.741,-232.407c-121.81,6.096 -140.925,101.718 -134.196,236.169c6.729,134.452 36.753,256.818 158.564,250.721Z" style="fill:#800;fill-rule:nonzero;"/><path d="M4266.78,3107.66c7.018,-1.304 14.236,-4.512 21.754,-9.324c9.223,-6.014 15.338,-13.032 18.446,-21.052c3.108,-7.919 3.308,-16.841 0.702,-26.666c7.217,4.111 14.736,6.015 22.656,5.715c7.919,-0.301 15.438,-2.707 22.556,-7.419c11.628,-7.519 18.144,-17.343 19.648,-29.573c1.404,-12.13 -2.606,-25.363 -11.929,-39.799l-34.887,-53.532l-8.822,5.714l1.203,1.804c2.306,3.609 3.609,6.717 3.81,9.424c0.2,2.606 -0.702,5.112 -2.506,7.719c-1.805,2.506 -4.612,5.213 -8.521,8.02c-4.01,2.807 -9.023,6.215 -15.038,10.125l-25.663,16.741l-12.631,-19.348c-10.527,-16.04 -23.258,-25.262 -37.995,-27.668c-14.736,-2.506 -30.174,1.503 -46.114,11.929l-56.339,36.491c-6.115,4.01 -11.228,7.218 -15.338,9.623c-4.211,2.507 -7.719,4.01 -10.827,4.712c-3.007,0.702 -5.714,0.401 -7.92,-0.702c-2.305,-1.203 -4.511,-3.408 -6.716,-6.917l-1.704,-1.303l-8.321,5.413l33.583,51.528l9.123,-6.015l-3.108,-4.812c-2.005,-2.807 -2.907,-5.313 -2.707,-7.619c0.201,-2.305 1.404,-4.711 3.509,-7.117c2.205,-2.406 5.313,-5.013 9.323,-7.719c3.91,-2.707 8.621,-5.915 14.035,-9.424l25.764,-16.641l21.453,32.882l9.222,14.135l29.373,45.312c4.211,6.416 8.822,11.729 14.135,16.039c5.213,4.311 10.927,7.319 17.042,8.923c6.216,1.704 12.732,1.804 19.749,0.401Zm58.545,-128.118c4.211,-2.606 8.02,-3.909 11.228,-4.21c2.607,0.802 5.413,3.509 8.421,8.22c7.118,10.927 10.325,20.05 9.523,27.268c-0.701,7.117 -5.814,13.734 -15.037,19.749c-4.912,3.208 -9.523,5.313 -13.834,6.215c-4.411,1.003 -8.722,0.702 -12.832,-0.802c-4.21,-1.504 -8.32,-4.21 -12.531,-8.321c-4.11,-4.11 -8.421,-9.523 -12.932,-16.44c-1.102,-1.805 -1.804,-3.108 -2.005,-4.01c-0.2,-0.902 0.301,-1.905 1.604,-3.108l22.255,-14.536c6.416,-4.21 11.83,-7.519 16.14,-10.025Zm-131.626,45.814c-1.904,-1.103 -3.709,-2.907 -5.714,-5.414c-0.601,-0.902 -1.203,-1.804 -1.905,-2.807l-21.352,-32.881l27.768,-18.145c6.517,-4.21 12.531,-6.817 18.045,-7.92c5.614,-1.102 10.626,-1.102 15.238,-0.1c4.511,1.103 8.421,3.008 11.829,5.915c3.308,2.907 6.216,6.115 8.521,9.624l12.632,19.348l-30.376,19.748c-6.115,3.91 -11.228,7.118 -15.338,9.624c-4.21,2.406 -7.819,3.91 -10.927,4.511c-3.107,0.602 -5.914,0.101 -8.421,-1.503Zm51.227,62.254c-4.21,-0.702 -8.22,-2.406 -12.13,-5.313c-4.01,-2.807 -7.919,-6.717 -12.03,-11.83c-2.506,-4.009 -4.01,-7.418 -4.411,-10.325c-0.4,-2.907 0.301,-5.714 2.005,-8.421c1.705,-2.606 4.612,-5.413 8.522,-8.22c3.909,-2.807 8.922,-6.115 14.937,-10.125l29.372,-19.048c1.203,-0.501 2.306,-0.401 3.108,0.201c0.902,0.702 2.005,2.005 3.308,4.01c5.013,7.619 8.521,14.436 10.627,20.451c2.205,6.115 3.007,11.528 2.506,16.44c-0.502,4.812 -2.206,9.223 -5.013,13.133c-2.807,3.909 -6.716,7.418 -11.528,10.626c-5.714,3.308 -11.028,5.814 -15.739,7.218c-4.812,1.504 -9.323,1.905 -13.534,1.203Z" style="fill:#fff;fill-rule:nonzero;"/></g><path d="M3680.41,2895.31c-2.005,0.162 -4.017,0.243 -6.029,0.243c-41.144,-0 -75,-33.857 -75,-75c-0,-38.858 30.198,-71.609 68.928,-74.754c41.287,-3.342 52.546,29.435 55.888,70.722c3.342,41.286 -2.5,75.447 -43.787,78.789Z" style="fill:#fff;fill-rule:nonzero;"/><path d="M206.1,1504.27l1843.72,-0l285.846,139.258l455.441,221.884l297.784,-557.55l842.666,-0" style="fill:none;fill-rule:nonzero;stroke:#3f3d56;stroke-width:8.33px;"/><circle cx="928.381" cy="1562.61" r="57.022" style="fill:#800;"/><circle cx="1460.59" cy="1504.27" r="57.022" style="fill:#800;"/><circle cx="2334.93" cy="1643.66" r="57.022" style="fill:#800;"/><circle cx="3564.08" cy="1307.86" r="57.022" style="fill:#800;"/><circle cx="2968.51" cy="1529.62" r="57.022" style="fill:#800;"/><circle cx="1781.57" cy="2422.67" r="61.481" style="fill:none;stroke:#3f3d56;stroke-width:8.33px;"/><ellipse cx="708.333" cy="3372.65" rx="708.333" ry="96.363" style="fill:#3f3d56;"/><circle cx="670.019" cy="2901.82" r="329.167" style="fill:#2f2e41;"/><rect x="520.019" y="3160.15" width="100" height="179.167" style="fill:#2f2e41;"/><rect x="720.019" y="3160.15" width="100" height="179.167" style="fill:#2f2e41;"/><ellipse cx="603.352" cy="3341.4" rx="83.333" ry="31.25" style="fill:#2f2e41;"/><ellipse cx="803.352" cy="3337.24" rx="83.333" ry="31.25" style="fill:#2f2e41;"/><circle cx="678.352" cy="2818.49" r="112.5" style="fill:#fff;"/><circle cx="678.352" cy="2818.49" r="37.5" style="fill:#3f3d56;"/><g><path d="M350.716,2595.7c-26.578,-119.032 58.383,-239.308 189.767,-268.645c131.384,-29.337 259.438,43.375 286.017,162.407c26.578,119.031 -60.495,162.932 -191.878,192.269c-131.384,29.337 -257.327,33 -283.906,-86.031Z" style="fill:#800;fill-rule:nonzero;"/><path d="M678.903,2462.52c-1.303,-7.018 -4.511,-14.236 -9.323,-21.754c-6.015,-9.223 -13.032,-15.338 -21.052,-18.446c-7.92,-3.107 -16.842,-3.308 -26.666,-0.702c4.11,-7.217 6.015,-14.736 5.714,-22.656c-0.301,-7.919 -2.707,-15.438 -7.419,-22.555c-7.518,-11.629 -17.342,-18.145 -29.573,-19.649c-12.13,-1.404 -25.362,2.606 -39.798,11.929l-53.533,34.887l5.714,8.822l1.805,-1.203c3.609,-2.306 6.717,-3.609 9.423,-3.81c2.607,-0.2 5.113,0.702 7.719,2.506c2.507,1.805 5.213,4.612 8.02,8.522c2.807,4.009 6.216,9.022 10.125,15.037l16.742,25.663l-19.348,12.631c-16.04,10.527 -25.263,23.258 -27.669,37.995c-2.506,14.736 1.504,30.174 11.93,46.114l36.49,56.339c4.01,6.115 7.218,11.228 9.624,15.338c2.506,4.211 4.01,7.719 4.712,10.827c0.701,3.008 0.401,5.714 -0.702,7.92c-1.203,2.305 -3.409,4.511 -6.917,6.716l-1.303,1.705l5.413,8.32l51.527,-33.583l-6.014,-9.123l-4.812,3.108c-2.807,2.005 -5.313,2.907 -7.619,2.707c-2.306,-0.201 -4.712,-1.404 -7.118,-3.509c-2.406,-2.205 -5.012,-5.313 -7.719,-9.323c-2.707,-3.91 -5.915,-8.621 -9.423,-14.035l-16.641,-25.763l32.881,-21.454l14.135,-9.222l45.312,-29.373c6.416,-4.211 11.729,-8.822 16.04,-14.135c4.311,-5.213 7.318,-10.927 8.922,-17.042c1.704,-6.216 1.804,-12.732 0.401,-19.749Zm-128.117,-58.545c-2.607,-4.211 -3.91,-8.02 -4.211,-11.228c0.802,-2.606 3.509,-5.413 8.221,-8.421c10.927,-7.117 20.049,-10.325 27.267,-9.523c7.118,0.701 13.734,5.814 19.749,15.037c3.208,4.912 5.313,9.523 6.215,13.834c1.003,4.411 0.702,8.722 -0.802,12.832c-1.503,4.21 -4.21,8.32 -8.32,12.531c-4.11,4.11 -9.524,8.421 -16.441,12.932c-1.804,1.103 -3.108,1.804 -4.01,2.005c-0.902,0.2 -1.904,-0.301 -3.107,-1.604l-14.536,-22.255c-4.211,-6.416 -7.519,-11.83 -10.025,-16.14Zm45.813,131.626c-1.103,1.904 -2.907,3.709 -5.413,5.714c-0.902,0.601 -1.805,1.203 -2.807,1.905l-32.882,21.352l-18.144,-27.768c-4.211,-6.517 -6.817,-12.531 -7.92,-18.045c-1.103,-5.614 -1.103,-10.626 -0.1,-15.238c1.102,-4.511 3.007,-8.421 5.914,-11.829c2.908,-3.308 6.115,-6.216 9.624,-8.521l19.348,-12.631l19.749,30.375c3.91,6.115 7.118,11.228 9.624,15.338c2.406,4.21 3.909,7.819 4.511,10.927c0.601,3.107 0.1,5.914 -1.504,8.421Zm62.254,-51.227c-0.701,4.21 -2.406,8.22 -5.313,12.13c-2.807,4.01 -6.716,7.919 -11.829,12.03c-4.01,2.506 -7.419,4.01 -10.326,4.411c-2.907,0.4 -5.714,-0.301 -8.421,-2.005c-2.606,-1.705 -5.413,-4.612 -8.22,-8.522c-2.807,-3.909 -6.115,-8.922 -10.125,-14.937l-19.047,-29.372c-0.501,-1.203 -0.401,-2.306 0.2,-3.108c0.702,-0.902 2.005,-2.005 4.01,-3.308c7.619,-5.013 14.436,-8.521 20.451,-10.626c6.115,-2.206 11.528,-3.008 16.441,-2.507c4.812,0.502 9.222,2.206 13.132,5.013c3.91,2.807 7.419,6.716 10.626,11.528c3.309,5.714 5.815,11.028 7.218,15.739c1.504,4.812 1.905,9.323 1.203,13.534Z" style="fill:#fff;fill-rule:nonzero;"/></g><circle cx="557.519" cy="1955.99" r="329.167" style="fill:#2f2e41;"/><rect x="407.519" y="2214.32" width="100" height="179.167" style="fill:#2f2e41;"/><rect x="607.519" y="2214.32" width="100" height="179.167" style="fill:#2f2e41;"/><ellipse cx="490.852" cy="2395.57" rx="83.333" ry="31.25" style="fill:#2f2e41;"/><ellipse cx="690.852" cy="2391.4" rx="83.333" ry="31.25" style="fill:#2f2e41;"/><circle cx="565.852" cy="1872.65" r="112.5" style="fill:#fff;"/><circle cx="565.852" cy="1872.65" r="37.5" style="fill:#3f3d56;"/><g><path d="M238.216,1649.87c-26.578,-119.031 58.383,-239.307 189.767,-268.644c131.384,-29.337 259.438,43.375 286.017,162.406c26.578,119.032 -60.495,162.933 -191.878,192.27c-131.384,29.337 -257.327,33 -283.906,-86.032Z" style="fill:#800;fill-rule:nonzero;"/><path d="M566.403,1516.69c-1.303,-7.017 -4.511,-14.235 -9.323,-21.753c-6.015,-9.223 -13.032,-15.338 -21.052,-18.446c-7.92,-3.108 -16.842,-3.308 -26.666,-0.702c4.11,-7.218 6.015,-14.736 5.714,-22.656c-0.301,-7.92 -2.707,-15.438 -7.419,-22.556c-7.518,-11.629 -17.342,-18.145 -29.573,-19.648c-12.13,-1.404 -25.362,2.606 -39.798,11.929l-53.533,34.886l5.714,8.822l1.805,-1.203c3.609,-2.305 6.717,-3.609 9.423,-3.809c2.607,-0.201 5.113,0.702 7.719,2.506c2.507,1.805 5.213,4.612 8.02,8.521c2.807,4.01 6.216,9.023 10.125,15.037l16.742,25.664l-19.348,12.631c-16.04,10.526 -25.263,23.258 -27.669,37.994c-2.506,14.737 1.504,30.175 11.93,46.114l36.49,56.34c4.01,6.115 7.218,11.228 9.624,15.338c2.506,4.21 4.01,7.719 4.712,10.827c0.701,3.007 0.401,5.714 -0.702,7.919c-1.203,2.306 -3.409,4.512 -6.917,6.717l-1.303,1.704l5.413,8.321l51.527,-33.583l-6.014,-9.123l-4.812,3.108c-2.807,2.005 -5.313,2.907 -7.619,2.706c-2.306,-0.2 -4.712,-1.403 -7.118,-3.508c-2.406,-2.206 -5.012,-5.313 -7.719,-9.323c-2.707,-3.91 -5.915,-8.622 -9.423,-14.035l-16.641,-25.764l32.881,-21.453l14.135,-9.223l45.312,-29.373c6.416,-4.21 11.729,-8.821 16.04,-14.135c4.311,-5.213 7.318,-10.927 8.922,-17.042c1.704,-6.215 1.804,-12.731 0.401,-19.749Zm-128.117,-58.545c-2.607,-4.21 -3.91,-8.019 -4.211,-11.227c0.802,-2.607 3.509,-5.414 8.221,-8.421c10.927,-7.118 20.049,-10.326 27.267,-9.524c7.118,0.702 13.734,5.815 19.749,15.037c3.208,4.913 5.313,9.524 6.215,13.835c1.003,4.411 0.702,8.721 -0.802,12.831c-1.503,4.211 -4.21,8.321 -8.32,12.531c-4.11,4.111 -9.524,8.421 -16.441,12.932c-1.804,1.103 -3.108,1.805 -4.01,2.005c-0.902,0.201 -1.904,-0.3 -3.107,-1.604l-14.536,-22.255c-4.211,-6.415 -7.519,-11.829 -10.025,-16.14Zm45.813,131.626c-1.103,1.905 -2.907,3.709 -5.413,5.714c-0.902,0.602 -1.805,1.203 -2.807,1.905l-32.882,21.353l-18.144,-27.769c-4.211,-6.516 -6.817,-12.531 -7.92,-18.044c-1.103,-5.614 -1.103,-10.627 -0.1,-15.238c1.102,-4.511 3.007,-8.421 5.914,-11.829c2.908,-3.309 6.115,-6.216 9.624,-8.522l19.348,-12.631l19.749,30.375c3.91,6.116 7.118,11.228 9.624,15.338c2.406,4.211 3.909,7.82 4.511,10.927c0.601,3.108 0.1,5.915 -1.504,8.421Zm62.254,-51.227c-0.701,4.211 -2.406,8.221 -5.313,12.13c-2.807,4.01 -6.716,7.92 -11.829,12.03c-4.01,2.506 -7.419,4.01 -10.326,4.411c-2.907,0.401 -5.714,-0.301 -8.421,-2.005c-2.606,-1.704 -5.413,-4.611 -8.22,-8.521c-2.807,-3.91 -6.115,-8.922 -10.125,-14.937l-19.047,-29.373c-0.501,-1.203 -0.401,-2.305 0.2,-3.107c0.702,-0.903 2.005,-2.005 4.01,-3.308c7.619,-5.013 14.436,-8.522 20.451,-10.627c6.115,-2.205 11.528,-3.007 16.441,-2.506c4.812,0.501 9.222,2.206 13.132,5.012c3.91,2.807 7.419,6.717 10.626,11.529c3.309,5.714 5.815,11.027 7.218,15.739c1.504,4.812 1.905,9.323 1.203,13.533Z" style="fill:#fff;fill-rule:nonzero;"/></g><path d="M38.062,1732.72c12.22,-25.765 88.774,-15.08 170.847,23.846c82.073,38.926 138.784,91.447 126.564,117.212c-12.22,25.765 -88.774,15.08 -170.847,-23.846c-82.072,-38.925 -138.784,-91.446 -126.564,-117.212Z" style="fill:#2f2e41;"/><path d="M395.833,2074.74c0,32.217 82.953,95.833 175,95.833c92.048,0 178.353,-90.7 178.353,-122.916c-0,-32.217 -86.305,6.25 -178.353,6.25c-92.047,-0 -175,-11.384 -175,20.833Z" style="fill:#fff;fill-rule:nonzero;"/><rect x="3481.14" y="2352.96" width="525.538" height="267.339" style="fill:#800;"/><rect x="3440.01" y="2396.37" width="525.538" height="267.339" style="fill:none;stroke:#3f3d56;stroke-width:8.33px;"/><rect x="944.181" y="829.167" width="150" height="150" style="fill:#ff6584;"/><rect x="906.681" y="779.167" width="150" height="150" style="fill:none;stroke:#3f3d56;stroke-width:8.33px;"/><circle cx="3775.22" cy="789.459" r="329.167" style="fill:#2f2e41;"/><path d="M3902.34,1211.04l98.401,-17.813l-31.915,-176.302l-98.401,17.813l31.915,176.302Z" style="fill:#2f2e41;"/><path d="M3705.55,1246.68l98.4,-17.813l-31.915,-176.301l-98.401,17.813l31.916,176.301Z" style="fill:#2f2e41;"/><path d="M3717.39,1236.09c35.097,-29.724 72.642,-43.17 83.788,-30.009c11.147,13.162 -8.299,47.979 -43.396,77.703c-35.098,29.724 -72.642,43.171 -83.789,30.009c-11.146,-13.162 8.299,-47.979 43.397,-77.703Z" style="fill:#2f2e41;"/><path d="M3910.1,1201.2c35.098,-29.724 72.642,-43.171 83.788,-30.009c11.147,13.161 -8.298,47.979 -43.396,77.703c-35.098,29.724 -72.642,43.17 -83.788,30.009c-11.147,-13.162 8.298,-47.98 43.396,-77.703Z" style="fill:#2f2e41;"/><circle cx="3752.17" cy="708.943" r="112.5" style="fill:#fff;"/><circle cx="3705.93" cy="668.617" r="37.5" style="fill:#3f3d56;"/><path d="M3310.85,692.718c6.371,-27.795 83.427,-33.885 171.967,-13.59c88.54,20.295 155.25,59.338 148.879,87.134c-6.371,27.795 -83.427,33.884 -171.967,13.59c-88.539,-20.295 -155.25,-59.338 -148.879,-87.134Z" style="fill:#2f2e41;"/><path d="M3957,800.171c6.371,-27.796 83.427,-33.885 171.967,-13.59c88.539,20.294 155.25,59.337 148.879,87.133c-6.371,27.795 -83.427,33.885 -171.967,13.59c-88.54,-20.295 -155.25,-59.338 -148.879,-87.133Z" style="fill:#2f2e41;"/><path d="M3865.62,919.179c0.798,4.409 1.199,8.88 1.199,13.36c0,41.144 -33.856,75 -75,75c-36.122,0 -67.366,-26.096 -73.8,-61.64c-7.379,-40.759 24.135,-55.182 64.894,-62.56c40.759,-7.379 75.328,-4.919 82.707,35.84Z" style="fill:#fff;fill-rule:nonzero;"/><path d="M2969.18,412.5l379.167,291.667" style="fill:none;fill-rule:nonzero;stroke:#3f3d56;stroke-width:8.33px;"/><circle cx="2790.01" cy="283.333" r="283.333" style="fill:#ff6584;"/><path d="M3672.41,2797.74c12.201,-90.013 45.048,-159.982 73.306,-156.152c28.258,3.83 41.294,80.018 29.094,170.031c-12.201,90.013 -45.048,159.983 -73.306,156.153c-28.257,-3.83 -41.294,-80.019 -29.094,-170.032Z" style="fill:#2f2e41;"/><circle cx="286.714" cy="3275.11" r="57.022" style="fill:#800;"/><rect x="1069.18" y="3208.33" width="150" height="150" style="fill:#ff6584;"/><circle cx="1070.05" cy="3308.44" r="57.022" style="fill:#800;"/><circle cx="1924.82" cy="1062.61" r="57.022" style="fill:#800;"/><circle cx="3032.17" cy="2830.22" r="27.231" style="fill:#ff6584;"/><path d="M3165.58,3282.19l-0,-310.047" style="fill:none;fill-rule:nonzero;stroke:#3f3d56;stroke-width:8.33px;"/><circle cx="3165.58" cy="2972.14" r="43.845" style="fill:#3f3d56;"/><path d="M3165.58,3163.23c-0,0 -6.264,-134.716 -134.668,-119.057" style="fill:#3f3d56;fill-rule:nonzero;"/><g><path d="M4034.88,431.361c4.95,-121.863 -100.078,-225.081 -234.587,-230.545c-134.508,-5.464 -247.562,88.896 -252.512,210.758c-4.95,121.863 88.551,149.551 223.059,155.015c134.509,5.464 259.089,-13.366 264.04,-135.228Z" style="fill:#800;fill-rule:nonzero;"/><path d="M3881.66,336.775c-1.303,-7.017 -4.511,-14.235 -9.323,-21.754c-6.015,-9.223 -13.032,-15.338 -21.052,-18.445c-7.92,-3.108 -16.842,-3.309 -26.666,-0.702c4.11,-7.218 6.015,-14.737 5.714,-22.656c-0.301,-7.92 -2.707,-15.438 -7.418,-22.556c-7.519,-11.629 -17.343,-18.145 -29.573,-19.649c-12.131,-1.403 -25.363,2.607 -39.799,11.93l-53.532,34.886l5.714,8.822l1.804,-1.203c3.609,-2.306 6.717,-3.609 9.423,-3.809c2.607,-0.201 5.113,0.701 7.72,2.506c2.506,1.804 5.212,4.611 8.019,8.521c2.807,4.01 6.216,9.022 10.125,15.037l16.742,25.664l-19.348,12.631c-16.04,10.526 -25.262,23.257 -27.668,37.994c-2.507,14.736 1.503,30.175 11.929,46.114l36.49,56.34c4.01,6.115 7.218,11.227 9.624,15.338c2.506,4.21 4.01,7.719 4.712,10.826c0.702,3.008 0.401,5.715 -0.702,7.92c-1.203,2.306 -3.408,4.511 -6.917,6.717l-1.303,1.704l5.413,8.32l51.528,-33.583l-6.015,-9.122l-4.812,3.107c-2.807,2.005 -5.313,2.908 -7.619,2.707c-2.306,-0.2 -4.712,-1.403 -7.118,-3.509c-2.406,-2.205 -5.012,-5.313 -7.719,-9.323c-2.706,-3.909 -5.914,-8.621 -9.423,-14.034l-16.641,-25.764l32.881,-21.453l14.135,-9.223l45.312,-29.373c6.416,-4.21 11.73,-8.822 16.04,-14.135c4.311,-5.213 7.318,-10.927 8.922,-17.042c1.705,-6.216 1.805,-12.732 0.401,-19.749Zm-128.117,-58.545c-2.606,-4.21 -3.91,-8.02 -4.21,-11.228c0.802,-2.606 3.508,-5.413 8.22,-8.421c10.927,-7.117 20.05,-10.325 27.267,-9.523c7.118,0.702 13.734,5.814 19.749,15.037c3.208,4.912 5.314,9.524 6.216,13.834c1.002,4.411 0.701,8.722 -0.802,12.832c-1.504,4.211 -4.211,8.321 -8.321,12.531c-4.11,4.11 -9.523,8.421 -16.441,12.932c-1.804,1.103 -3.107,1.805 -4.01,2.005c-0.902,0.201 -1.904,-0.301 -3.107,-1.604l-14.536,-22.255c-4.211,-6.416 -7.519,-11.829 -10.025,-16.14Zm45.813,131.626c-1.102,1.905 -2.907,3.709 -5.413,5.714c-0.902,0.602 -1.804,1.203 -2.807,1.905l-32.881,21.353l-18.145,-27.769c-4.211,-6.516 -6.817,-12.531 -7.92,-18.045c-1.103,-5.614 -1.103,-10.626 -0.1,-15.238c1.103,-4.511 3.007,-8.42 5.915,-11.829c2.907,-3.308 6.115,-6.215 9.623,-8.521l19.348,-12.631l19.749,30.375c3.91,6.115 7.118,11.228 9.624,15.338c2.406,4.21 3.91,7.819 4.511,10.927c0.602,3.108 0.1,5.915 -1.504,8.421Zm62.255,-51.227c-0.702,4.21 -2.406,8.22 -5.314,12.13c-2.806,4.01 -6.716,7.92 -11.829,12.03c-4.01,2.506 -7.418,4.01 -10.325,4.411c-2.908,0.401 -5.715,-0.301 -8.421,-2.005c-2.607,-1.704 -5.414,-4.612 -8.221,-8.521c-2.807,-3.91 -6.115,-8.922 -10.125,-14.937l-19.047,-29.373c-0.501,-1.203 -0.401,-2.306 0.201,-3.108c0.701,-0.902 2.005,-2.005 4.01,-3.308c7.618,-5.012 14.435,-8.521 20.45,-10.626c6.115,-2.206 11.529,-3.008 16.441,-2.506c4.812,0.501 9.223,2.205 13.132,5.012c3.91,2.807 7.419,6.717 10.627,11.529c3.308,5.714 5.814,11.027 7.218,15.739c1.503,4.811 1.904,9.323 1.203,13.533Z" style="fill:#fff;fill-rule:nonzero;"/></g></svg>