<svg clip-rule="evenodd" fill-rule="evenodd" stroke-miterlimit="10" viewBox="0 0 4666 2913" xmlns="http://www.w3.org/2000/svg"><circle cx="1219.2" cy="887.5" fill="#f2f2f2" r="887.5"/><path d="m0 213.093c0 322.908 202.575 584.201 452.92 584.201" fill="#2f2e41" fill-rule="nonzero"/><path d="m452.92 797.294c0-326.536 226.062-590.765 505.432-590.765" fill="#800" fill-rule="nonzero"/><path d="m164.101 242.365c0 306.728 129.179 554.929 288.819 554.929" fill="#800" fill-rule="nonzero"/><path d="m452.92 797.294c0-417.241 261.293-754.866 584.2-754.866" fill="#2f2e41" fill-rule="nonzero"/><path d="m357.637 801.413s64.232-1.979 83.589-15.763c19.358-13.784 98.804-30.244 103.607-8.136 4.802 22.107 96.528 109.951 24.011 110.535-72.517.585-168.498-11.295-187.818-23.064-19.321-11.769-23.389-63.572-23.389-63.572z" fill="#a8a8a8" fill-rule="nonzero"/><path d="m570.138 880.354c-72.517.585-168.497-11.296-187.818-23.065-14.713-8.962-20.577-41.122-22.538-55.96-1.359.058-2.145.083-2.145.083s4.069 51.804 23.389 63.573c19.321 11.768 115.301 23.649 187.818 23.064 20.933-.169 28.163-7.616 27.766-18.647-2.908 6.665-10.892 10.826-26.472 10.952z" fill-opacity=".2" fill-rule="nonzero"/><ellipse cx="827.538" cy="1768.75" fill="#3f3d56" rx="779.167" ry="106"/><ellipse cx="827.538" cy="1768.75" fill-opacity=".1" rx="654.167" ry="88.994"/><ellipse cx="3485.87" cy="2752.08" fill="#3f3d56" rx="1179.17" ry="160.417"/><ellipse cx="1294.2" cy="2689.58" fill="#3f3d56" rx="708.333" ry="96.363"/><path d="m1927.54 2608.33c375 95.834 1095.83-125 1175-375" fill="none" stroke="#2f2e41" stroke-width="8.33"/><path d="m1290.04 1079.17s541.667-150 575 333.333-445.833 620.833-70.833 716.667" fill="none" stroke="#2f2e41" stroke-width="8.33"/><path d="m766.714 2238.68s162.802-45.084 172.82 100.185c10.019 145.269-133.998 186.595-21.289 215.398" fill="none" stroke="#2f2e41" stroke-width="8.33"/><path d="m3244.6 2346.83-32.823 209.563s-161.591 85.845-47.973 88.37c113.619 2.525 648.889 0 648.889 0s103.519 0-60.597-90.895l-32.823-219.662z" fill="#2f2e41" fill-rule="nonzero"/><path d="m3140.95 2642.49c25.804-22.96 70.828-46.883 70.828-46.883l32.824-209.564 474.673.447 32.823 206.592c38.271 21.196 61.979 37.446 75.849 49.909 21.078-4.809 44.113-22.682-75.849-89.122l-32.823-219.662-474.673 12.624-32.823 209.563s-135.784 72.144-70.829 86.096z" fill-opacity=".1" fill-rule="nonzero"/><path d="m4548.69 961.393c0-41.499-33.692-75.191-75.19-75.191h-1988.17c-41.498 0-75.19 33.692-75.19 75.191v1339.29c0 41.499 33.692 75.191 75.19 75.191h1988.17c41.498 0 75.19-33.692 75.19-75.191z" fill="#2f2e41"/><path d="m2482.1 965.736h1994.64v1115.99h-1994.64z" fill="#3f3d56"/><circle cx="3479.41" cy="930.387" fill="#f2f2f2" r="12.624"/><path d="m4548.69 2170.09v130.585.01c0 41.243-33.938 75.181-75.181 75.181-.003 0-.006 0-.009 0h-1988.17c-.003 0-.006 0-.009 0-41.243 0-75.181-33.938-75.181-75.181 0-.003 0-.007 0-.01v-130.585z" fill="#2f2e41" fill-rule="nonzero"/><path d="m4037.41 2781.11v25.25h-1358.38v-20.2l1.871-5.05 33.479-90.896 1295.25.001 27.775 90.895z" fill="#2f2e41" fill-rule="nonzero"/><path d="m4560.15 2756.39c-2.475 10.579-11.817 21.739-32.924 32.293-75.746 37.873-229.763-10.099-229.763-10.099s-118.668-20.199-118.668-73.221c3.332-2.282 6.807-4.348 10.403-6.186 31.845-16.848 137.435-58.422 324.657 1.76 13.791 4.329 26.113 12.404 35.587 23.322 7.587 8.881 13.535 20.146 10.708 32.131z" fill="#2f2e41" fill-rule="nonzero"/><path d="m4560.15 2756.39c-92.713 35.525-175.352 38.176-260.162-20.729-42.771-29.693-81.628-37.04-110.79-36.484 31.845-16.848 137.435-58.422 324.657 1.76 13.791 4.329 26.113 12.404 35.587 23.322 7.587 8.881 13.535 20.146 10.708 32.131z" fill-opacity=".1" fill-rule="nonzero"/><ellipse cx="4443.91" cy="2725.56" fill="#f2f2f2" rx="32.823" ry="10.099"/><circle cx="3479.41" cy="2273.61" fill="#f2f2f2" r="47.972"/><path d="m4037.41 2781.11v25.25h-1358.38v-20.2l1.871-5.05h1356.5z" fill-opacity=".1" fill-rule="nonzero"/><path d="m452.538 662.5h866.667v1008.33h-866.667z" fill="#2f2e41"/><path d="m365.038 562.5h1041.67v358.333h-1041.67z" fill="#3f3d56"/><path d="m365.038 987.5h1041.67v358.333h-1041.67z" fill="#3f3d56"/><path d="m365.038 1412.5h1041.67v358.333h-1041.67z" fill="#3f3d56"/><g fill="#800"><path d="m1131.7 625h66.667v66.667h-66.667z" fill-opacity=".4"/><path d="m1227.54 625h66.667v66.667h-66.667z" fill-opacity=".8"/><path d="m1323.37 625h66.667v66.667h-66.667z"/><path d="m1131.7 1045.83h66.667v66.667h-66.667z" fill-opacity=".4"/><path d="m1227.54 1045.83h66.667v66.667h-66.667z" fill-opacity=".8"/><path d="m1323.37 1045.83h66.667v66.667h-66.667z"/><path d="m1131.7 1466.67h66.667v66.667h-66.667z" fill-opacity=".4"/><path d="m1227.54 1466.67h66.667v66.667h-66.667z" fill-opacity=".8"/><path d="m1323.37 1466.67h66.667v66.667h-66.667z"/></g><circle cx="1319.2" cy="2241.67" fill="#2f2e41" r="329.167"/><path d="m1169.2 2500h100v179.167h-100z" fill="#2f2e41"/><path d="m1369.2 2500h100v179.167h-100z" fill="#2f2e41"/><ellipse cx="1252.54" cy="2681.25" fill="#2f2e41" rx="83.333" ry="31.25"/><ellipse cx="1452.54" cy="2677.08" fill="#2f2e41" rx="83.333" ry="31.25"/><circle cx="1327.54" cy="2158.33" fill="#fff" r="112.5"/><circle cx="1327.54" cy="2158.33" fill="#3f3d56" r="37.5"/><path d="m999.902 1935.55c-26.579-119.031 58.383-239.308 189.766-268.645 131.384-29.337 259.438 43.375 286.017 162.407s-60.494 162.932-191.878 192.269-257.326 33.001-283.905-86.031z" fill="#800" fill-rule="nonzero"/><path d="m1587.27 2081.01c83.508-35.742 160.416-43.476 171.637-17.26 11.22 26.216-47.468 76.518-130.977 112.26s-160.417 43.476-171.637 17.26c-11.221-26.215 47.468-76.518 130.977-112.26z" fill="#2f2e41"/><path d="m970.604 2301.85c83.509-35.742 160.417-43.476 171.637-17.26 11.221 26.215-47.468 76.517-130.977 112.26-83.508 35.742-160.416 43.476-171.637 17.26-11.22-26.216 47.468-76.518 130.977-112.26z" fill="#2f2e41"/><path d="m1510.87 2337.5c0 32.217-82.952 95.833-175 95.833-92.047 0-179.166-59.45-179.166-91.666 0-32.217 87.119-25 179.166-25 92.048 0 175-11.384 175 20.833z" fill="#fff" fill-rule="nonzero"/><path d="m1310.26 1806.13c-1.046-5.634-3.622-11.429-7.485-17.465-4.829-7.404-10.462-12.314-16.901-14.809-6.358-2.495-13.521-2.656-21.408-.563 3.299-5.795 4.829-11.831 4.587-18.189-.241-6.358-2.173-12.395-5.956-18.109-6.036-9.336-13.923-14.567-23.742-15.774-9.739-1.127-20.362 2.092-31.952 9.577l-42.978 28.008 4.588 7.082 1.449-.965c2.897-1.851 5.392-2.898 7.565-3.059 2.092-.161 4.105.564 6.197 2.012 2.012 1.449 4.185 3.703 6.439 6.841 2.253 3.22 4.99 7.244 8.129 12.073l13.44 20.603-15.533 10.141c-12.877 8.451-20.282 18.672-22.213 30.503-2.012 11.831 1.207 24.226 9.577 37.022l29.296 45.232c3.219 4.909 5.795 9.014 7.726 12.314 2.012 3.38 3.22 6.197 3.783 8.692.563 2.414.322 4.587-.563 6.358-.966 1.851-2.737 3.622-5.554 5.392l-1.046 1.368 4.346 6.681 41.368-26.962-4.829-7.324-3.863 2.495c-2.253 1.61-4.266 2.334-6.117 2.173s-3.782-1.127-5.714-2.817c-1.932-1.771-4.024-4.266-6.197-7.485-2.173-3.139-4.749-6.922-7.565-11.268l-13.361-20.684 26.399-17.223 11.348-7.404 36.378-23.582c5.151-3.38 9.417-7.082 12.877-11.348 3.461-4.185 5.876-8.773 7.163-13.682 1.369-4.99 1.449-10.221.322-15.855zm-102.857-47.002c-2.092-3.38-3.139-6.439-3.38-9.014.644-2.093 2.817-4.346 6.6-6.761 8.772-5.714 16.096-8.289 21.891-7.646 5.714.564 11.026 4.668 15.855 12.073 2.575 3.943 4.266 7.646 4.99 11.106.805 3.542.563 7.002-.644 10.302-1.207 3.381-3.38 6.68-6.68 10.061-3.3 3.299-7.646 6.76-13.199 10.382-1.449.885-2.495 1.449-3.22 1.61-.724.16-1.529-.242-2.495-1.288l-11.67-17.867c-3.38-5.151-6.036-9.497-8.048-12.958zm36.781 105.674c-.885 1.529-2.334 2.978-4.346 4.587-.725.483-1.449.966-2.254 1.53l-26.398 17.142-14.568-22.293c-3.38-5.232-5.472-10.061-6.358-14.487-.885-4.507-.885-8.531-.08-12.234.885-3.621 2.414-6.76 4.748-9.497 2.334-2.656 4.91-4.99 7.727-6.841l15.533-10.141 15.855 24.387c3.139 4.909 5.714 9.014 7.726 12.314 1.932 3.38 3.139 6.277 3.622 8.772s.081 4.749-1.207 6.761zm49.98-41.127c-.564 3.38-1.932 6.6-4.266 9.739-2.253 3.219-5.392 6.358-9.497 9.658-3.219 2.012-5.956 3.219-8.29 3.541s-4.587-.242-6.76-1.61c-2.093-1.368-4.346-3.702-6.6-6.841-2.253-3.139-4.909-7.163-8.129-11.992l-15.291-23.581c-.403-.966-.322-1.851.161-2.495.563-.725 1.609-1.61 3.219-2.656 6.117-4.024 11.59-6.841 16.419-8.531 4.909-1.771 9.255-2.415 13.199-2.012 3.863.402 7.404 1.77 10.543 4.024 3.139 2.253 5.956 5.392 8.531 9.255 2.656 4.588 4.668 8.853 5.795 12.636 1.207 3.863 1.529 7.485.966 10.865z" fill="#fff" fill-rule="nonzero"/></svg>