<svg aria-label="friByte logo" clip-rule="evenodd" fill-rule="evenodd" stroke-linejoin="round" stroke-miterlimit="2" viewBox="0 0 2084 2084" xmlns="http://www.w3.org/2000/svg"><g fill-rule="nonzero"><path fill="#800000" d="m1885.42 12.868h-1688.11c-101.716 0-184.436 83.333-184.436 184.436v1688.73c0 101.103 82.72 184.437 184.436 184.437h1688.11c101.715 0 185.049-83.334 185.049-184.437v-1688.73c0-101.103-83.334-184.436-185.049-184.436z" /><path d="m1593.75 753.064c-7.966-42.892-27.574-87.01-56.985-132.966-36.765-56.373-79.657-93.75-128.677-112.745-48.407-18.995-102.941-20.221-162.99-4.289 25.123-44.118 36.765-90.074 34.927-138.481-1.839-48.407-16.545-94.362-45.344-137.867-45.956-71.079-106.005-110.907-180.759-120.098-74.143-8.579-155.025 15.931-243.26 72.916l-327.206 213.236 34.926 53.921 11.03-7.353c22.059-14.093 41.054-22.059 57.598-23.284 15.931-1.226 31.25 4.289 47.181 15.319 15.319 11.029 31.863 28.186 49.02 52.083 17.157 24.51 37.99 55.147 61.887 91.912l102.328 156.862-118.259 77.206c-98.04 64.339-154.412 142.157-169.118 232.231-15.319 90.073 9.191 184.436 72.917 281.862l223.039 344.363c24.51 37.378 44.118 68.628 58.823 93.75 15.319 25.735 24.51 47.182 28.799 66.177 4.29 18.382 2.451 34.926-4.289 48.406-7.353 14.094-20.833 27.574-42.279 41.054l-7.966 10.417 33.088 50.858 314.951-205.27-36.764-55.759-29.412 18.995c-17.157 12.255-32.476 17.769-46.569 16.544-14.093-1.226-28.799-8.579-43.505-21.446-14.706-13.481-30.637-32.476-47.181-56.986-16.544-23.897-36.152-52.696-57.598-85.784l-101.716-157.475 200.981-131.128 86.397-56.372 276.96-179.535c39.216-25.735 71.692-53.921 98.04-86.397 26.348-31.863 44.73-66.789 54.534-104.166 10.417-37.991 11.029-77.819 2.451-120.711zm-783.088-357.843c-15.932-25.736-23.897-49.02-25.736-68.628 4.902-15.931 21.447-33.088 50.246-51.47 66.789-43.505 122.549-63.113 166.666-58.211 43.505 4.289 83.946 35.539 120.711 91.912 19.608 30.024 32.476 58.21 37.99 84.558 6.128 26.961 4.289 53.309-4.902 78.432-9.191 25.735-25.735 50.858-50.858 76.593-25.122 25.122-58.21 51.47-100.49 79.044-11.029 6.74-18.995 11.029-24.51 12.255-5.514 1.225-11.642-1.838-18.995-9.804l-88.848-136.029c-25.735-39.216-45.956-72.304-61.274-98.652zm280.024 804.534c-6.74 11.642-17.769 22.671-33.088 34.926-5.515 3.677-11.029 7.353-17.157 11.643l-200.98 130.514-110.907-169.73c-25.735-39.829-41.667-76.593-48.407-110.294-6.74-34.314-6.74-64.951-.613-93.138 6.741-27.573 18.383-51.47 36.152-72.303 17.77-20.221 37.378-37.991 58.824-52.084l118.26-77.206 120.71 185.662c23.897 37.378 43.505 68.628 58.824 93.75 14.706 25.735 23.897 47.794 27.573 66.789 3.677 18.995.613 36.152-9.191 51.471zm380.515-313.113c-4.289 25.735-14.706 50.245-32.476 74.142-17.156 24.51-41.053 48.407-72.303 73.53-24.51 15.318-45.344 24.51-63.113 26.961-17.77 2.45-34.927-1.839-51.471-12.255-15.931-10.417-33.088-28.187-50.245-52.084s-37.377-54.534-61.887-91.299l-116.422-179.534c-3.063-7.353-2.451-14.093 1.226-18.995 4.289-5.515 12.255-12.255 24.51-20.221 46.568-30.637 88.235-52.083 125-64.951 37.377-13.48 70.465-18.382 100.49-15.318 29.412 3.063 56.372 13.48 80.269 30.637s45.344 41.054 64.951 70.466c20.221 34.926 35.54 67.402 44.118 96.201 9.191 29.411 11.642 56.985 7.353 82.72z" fill="#fff"/></g></svg>
